# xmcd
#
# Track frame offsets: 
#        300
#        25117
#        53118
#        75086
#        100802
#        127159
#        147476
#        174536
#        200920
#        217754
#
# Disc length: 3311 seconds
#
# Revision: 0
# Processed by: cddbd v1.5.2PL0 Copyright (c) Steve Scherf et al.
# Submitted via: ExactAudioCopy v0.95b4
#
DISCID=890ceb0a
DTITLE=Валерий Ковтун - Танго
DYEAR=1900
DGENRE=Tango
TTITLE0=Либертанго
TTITLE1=Медитанго
TTITLE2=Виолентанго
TTITLE3=Амелитанго
TTITLE4=Новитанго
TTITLE5=Утомлённое солнце
TTITLE6=Тристанго
TTITLE7=Ундертанго
TTITLE8=Брызги шампанского
TTITLE9=Адиос Нонино
EXTD=
EXTT0=
EXTT1=
EXTT2=
EXTT3=
EXTT4=
EXTT5=
EXTT6=
EXTT7=
EXTT8=
EXTT9=
PLAYORDER=
